<?xml version="1.0" encoding="UTF-8" standalone="no"?>
<!DOCTYPE svg PUBLIC "-//W3C//DTD SVG 1.1//EN" "http://www.w3.org/Graphics/SVG/1.1/DTD/svg11.dtd">
<svg width="100%" height="100%" viewBox="0 0 24 24" version="1.1" xmlns="http://www.w3.org/2000/svg" xmlns:xlink="http://www.w3.org/1999/xlink" xml:space="preserve" xmlns:serif="http://www.serif.com/" style="fill-rule:evenodd;clip-rule:evenodd;stroke-linejoin:round;stroke-miterlimit:2;">
    <g transform="matrix(1,0,0,1,5.00419,0)">
        <path d="M3.294,11.975L10.985,19.666C11.182,19.863 11.284,20.114 11.291,20.419C11.297,20.724 11.201,20.976 11.004,21.173C10.806,21.371 10.555,21.469 10.25,21.469C9.945,21.469 9.694,21.371 9.496,21.173L1.904,13.561C1.676,13.333 1.512,13.082 1.413,12.809C1.313,12.535 1.264,12.257 1.264,11.975C1.264,11.693 1.313,11.415 1.413,11.141C1.512,10.868 1.676,10.617 1.904,10.388L9.496,2.796C9.694,2.599 9.942,2.497 10.241,2.49C10.539,2.484 10.787,2.579 10.985,2.777C11.182,2.974 11.281,3.226 11.281,3.531C11.281,3.836 11.182,4.087 10.985,4.284L3.294,11.975Z" style="fill:rgb(227,227,227);fill-rule:nonzero;"/>
    </g>
</svg>
